<?xml version="1.0" encoding="UTF-8" standalone="no"?>
<!-- Created with Inkscape (http://www.inkscape.org/) -->

<svg
   xmlns:dc="http://purl.org/dc/elements/1.1/"
   xmlns:cc="http://creativecommons.org/ns#"
   xmlns:rdf="http://www.w3.org/1999/02/22-rdf-syntax-ns#"
   xmlns:svg="http://www.w3.org/2000/svg"
   xmlns="http://www.w3.org/2000/svg"
   xmlns:sodipodi="http://sodipodi.sourceforge.net/DTD/sodipodi-0.dtd"
   xmlns:inkscape="http://www.inkscape.org/namespaces/inkscape"
   width="7.2940693mm"
   height="7.323524mm"
   viewBox="0 0 25.845127 25.949494"
   id="svg4851"
   version="1.1"
   inkscape:version="0.91 r13725"
   sodipodi:docname="pomodoro.svg">
  <defs
     id="defs4853" />
  <sodipodi:namedview
     id="base"
     pagecolor="#ffffff"
     bordercolor="#666666"
     borderopacity="1.0"
     inkscape:pageopacity="0.0"
     inkscape:pageshadow="2"
     inkscape:zoom="17.226648"
     inkscape:cx="30.122856"
     inkscape:cy="18.827279"
     inkscape:document-units="px"
     inkscape:current-layer="layer1"
     showgrid="false"
     inkscape:window-width="1368"
     inkscape:window-height="653"
     inkscape:window-x="497"
     inkscape:window-y="92"
     inkscape:window-maximized="0"
     fit-margin-top="0"
     fit-margin-left="0"
     fit-margin-right="0"
     fit-margin-bottom="0" />
  <metadata
     id="metadata4856">
    <rdf:RDF>
      <cc:Work
         rdf:about="">
        <dc:format>image/svg+xml</dc:format>
        <dc:type
           rdf:resource="http://purl.org/dc/dcmitype/StillImage" />
        <dc:title></dc:title>
      </cc:Work>
    </rdf:RDF>
  </metadata>
  <g
     inkscape:label="Calque 1"
     inkscape:groupmode="layer"
     id="layer1"
     transform="translate(-230.13678,-391.22922)">
    <path
       inkscape:connector-curvature="0"
       id="path4174"
       d="m 239.91977,416.77517 c -4.78298,-1.25399 -8.49303,-4.96364 -9.53754,-9.53652 -0.39646,-1.73573 -0.29977,-4.94228 0.19716,-6.53791 0.75249,-2.41629 2.26448,-4.28216 4.13923,-5.10804 1.88591,-0.83079 2.0128,-0.84545 2.16232,-0.24972 0.0719,0.28649 0.35672,0.62386 0.63292,0.74971 0.2762,0.12584 0.50218,0.2949 0.50218,0.37568 0,0.32486 -1.60353,1.56673 -2.49817,1.93474 -0.52429,0.21566 -0.95359,0.49935 -0.95401,0.63042 -0.001,0.44754 1.01202,1.44294 1.78334,1.75156 1.28864,0.51561 2.48349,0.60103 3.59843,0.25725 0.55856,-0.17222 1.11921,-0.31412 1.24587,-0.31533 0.12667,-0.001 0.43425,0.50028 0.68351,1.11442 0.4855,1.1962 1.33388,2.08227 2.42737,2.53521 0.64631,0.26771 0.70097,0.25514 1.14743,-0.2639 0.55764,-0.64829 0.89123,-1.74345 0.89279,-2.93092 6.3e-4,-0.47478 0.0697,-0.86191 0.15347,-0.86029 0.0838,0.002 0.56269,0.14583 1.06423,0.32044 1.63738,0.57006 3.26065,0.0189 3.96691,-1.34681 0.38672,-0.74782 0.38258,-1.21084 -0.0108,-1.21084 -0.17128,0 -0.77531,-0.23507 -1.34227,-0.52237 l -1.03085,-0.52237 0.82624,-0.40879 c 0.45443,-0.22484 0.88181,-0.58388 0.94973,-0.79787 0.15956,-0.50274 0.20845,-0.49559 1.4397,0.2106 1.35228,0.77561 2.59131,2.20143 3.15952,3.63584 0.39211,0.98985 0.45554,1.53662 0.46296,3.99061 0.007,2.42596 -0.0611,3.06734 -0.46604,4.36696 -0.71404,2.29165 -1.605,3.80554 -3.17978,5.403 -3.09922,3.14385 -8.06148,4.47685 -12.41584,3.33524 z m 3.84606,-14.67934 c -0.98423,-1.03714 -1.28127,-1.80846 -1.28127,-3.32708 l 0,-1.36689 -0.70419,0.82269 c -1.19766,1.39919 -2.7047,1.80479 -4.67422,1.25801 l -0.80834,-0.22441 0.73674,-0.37798 c 0.40521,-0.20788 1.0613,-0.75714 1.45798,-1.22056 0.9794,-1.14422 1.41112,-1.41489 2.529,-1.58561 l 0.95524,-0.14589 -1.40356,-0.25375 c -0.77196,-0.13956 -1.66717,-0.39007 -1.98935,-0.55667 -0.72569,-0.37527 -1.37851,-1.41134 -1.37952,-2.1894 l -7.6e-4,-0.58596 0.40201,0.51107 c 0.33016,0.41973 0.64776,0.53725 1.77725,0.65764 1.51654,0.16165 1.93247,0.32293 2.71701,1.05356 l 0.5293,0.49294 0.58357,-1.15339 c 0.32096,-0.63437 0.90853,-1.51959 1.3057,-1.96715 0.57881,-0.65224 0.81145,-0.7854 1.17209,-0.67094 l 0.44994,0.14281 -0.49748,0.65223 c -0.60068,0.78753 -1.31977,2.32817 -1.32592,2.84073 -0.004,0.34321 0.0541,0.33583 0.75173,-0.0953 0.66903,-0.41348 1.01801,-0.46807 3.02733,-0.47358 1.46023,-0.004 2.22831,0.0663 2.15121,0.1969 -0.75221,1.2741 -1.63255,1.92958 -2.5915,1.92958 -0.49806,0 -0.46126,0.0613 0.51856,0.86324 0.58006,0.47478 1.37327,1.05713 1.76268,1.29411 l 0.70802,0.43087 -0.65762,0.22925 c -1.70635,0.59484 -3.65785,-0.10189 -5.16219,-1.84303 l -0.75417,-0.87288 0.31377,0.76233 c 0.60207,1.4628 0.80194,3.03963 0.54324,4.28579 -0.13095,0.63078 -0.30508,1.14687 -0.38696,1.14687 -0.0819,0 -0.43077,-0.29705 -0.77532,-0.66012 z"
       style="fill:#ffffff;fill-opacity:1" />
  </g>
</svg>
